<?xml version="1.0" encoding="utf-8"?>
<!-- Svg Vector Icons : http://www.onlinewebfonts.com/icon -->
<svg version="1.1" xmlns="http://www.w3.org/2000/svg" xmlns:xlink="http://www.w3.org/1999/xlink"
  x="0px" y="0px" viewBox="0 0 256 256" enable-background="new 0 0 256 256" xml:space="preserve">
<style type="text/css">
	.st0{fill:#FF1D79;}
</style>
<path class="st0" d="M100.5,246c-8.5-2.4-16.5-6.4-23.9-12c-7.4-5.6-13.7-12.1-19-19.5c-5.2-7.4-9.3-15.5-12.3-24.4c-3-8.9-4.5-17.7-4.5-26.6c0-5.7,0.7-11.3,2.2-16.9c1.4-5.6,3.2-10.8,5.3-15.5c2.1-4.7,4.1-9.3,6.2-14c2-4.6,3.8-9.6,5.2-15c1.4-5.3,2.2-10.6,2.2-15.8c0-5.2-0.7-10.4-2.1-15.8c3.9,0.7,7.6,2.2,11,4.5c3.4,2.2,6.4,5,9,8.2c2.6,3.2,4.7,6.8,6.6,10.7c1.9,3.9,3.3,8,4.3,12.3c1,4.3,1.4,8.5,1.4,12.8c0,9.6-2.4,17.5-7.1,23.6c5.9-3.6,10.9-7.5,15-11.9c4.2-4.4,7.4-8.9,9.6-13.5c2.2-4.6,4.1-9.5,5.5-14.5s2.5-10.2,3.3-15.4c0.8-5.2,1.5-10.5,2.3-15.8c0.8-5.3,1.9-10.7,3.4-16.1c1.4-5.4,3.3-10.6,5.7-15.7c2.3-5.1,5.6-10.2,9.9-15.3c4.3-5.2,9.4-9.9,15.5-14.4c-2.6,5.6-4,11.4-4,17.4c0,5.5,1.1,11.2,3.3,17.3c2.2,6,5,11.9,8.6,17.7c3.5,5.8,7.5,11.7,11.8,17.7c4.3,6.1,8.7,12.3,13.1,18.7c4.4,6.4,8.5,12.8,12.3,19.1s7.1,13.2,9.8,20.5c2.7,7.3,4.4,14.4,5,21.5c0.2,2.4,0.3,4.7,0.3,7.1c0,7.8-1.2,15.4-3.5,22.8s-5.8,14.5-10.4,21.4c-4.6,6.9-10.8,13.3-18.5,19.2c-7.7,5.9-16.6,10.9-26.7,15c13.2-12.2,19.8-25.5,19.8-40.1c0-5.1-0.5-9.8-1.3-14.2c-0.9-4.4-2.1-8.4-3.6-12.2c-1.5-3.8-3-7.7-4.6-11.7c-1.6-4-3.2-9-4.8-15c-1.6-6-2.9-12.6-3.9-19.6c-0.6,4.1-2.3,8.3-5.1,12.5c-2.8,4.2-6.2,8.2-10.2,11.9c-4,3.7-8.3,7.4-13,11.2c-4.7,3.8-9.3,7.5-13.9,11.3c-4.6,3.8-8.7,7.6-12.5,11.4c-3.8,3.8-6.8,8-9.1,12.4c-2.3,4.4-3.5,8.9-3.5,13.3c0.1,3.7,0.5,7.3,1.2,10.9c0.6,3.5,1.8,7.1,3.3,10.5C96.6,241.4,98.4,244.1,100.5,246z"/>
</svg>
