<svg xmlns="http://www.w3.org/2000/svg" viewBox="0 0 324.18 334.51"><defs><style>.cls-1,.cls-4,.cls-7,.cls-8{fill:none;}.cls-1,.cls-2,.cls-5,.cls-6,.cls-8{stroke:#fff;}.cls-1,.cls-5,.cls-7{stroke-linecap:round;stroke-linejoin:round;}.cls-2{fill:#e94577;}.cls-2,.cls-4,.cls-6,.cls-8{stroke-miterlimit:10;}.cls-3{fill:#fff;}.cls-4{stroke:#77f9f1;}.cls-5{fill:#2353f3;}.cls-6{fill:#77f9f1;}.cls-7{stroke:#171c26;}</style></defs><title>Asset 2</title><g id="Layer_2" data-name="Layer 2"><g id="Layer_2-2" data-name="Layer 2"><path class="cls-1" d="M279.7,126s-13.1-1.25-12,15.91,17.93,16.06,19.49,14.34S297.51,148,293,136.13,279.7,126,279.7,126Z"/><path class="cls-2" d="M279.36,136.23c-.51-2-7-3.3-5.19,3.92,1.39,5.44,8.72,9.73,8.72,9.73s5.14-3.69,4.3-12.51C286.69,132.06,279.61,134.59,279.36,136.23Z"/><path class="cls-1" d="M305.11,287.62c12.13-105.76-13.52-215.46-13.52-215.46C129.59,26.59,68,44.31,68,44.31c14.6,66.61,32.78,151.88,53.12,230C157,270.35,233,266,305.11,287.62Z"/><path class="cls-1" d="M95,219S195.14,196,316.11,238.21"/><path class="cls-1" d="M313.42,180.92c-23.08-9.1-90.55-33.75-222.64-21.86"/><path class="cls-1" d="M81.5,105.06S163,80.36,307.34,126.94"/><path class="cls-2" d="M275.66,56.22s-31.5-3-28.88,38.25,43.13,38.62,46.88,34.5,24.84-19.88,14-48.38S275.66,56.22,275.66,56.22Z"/><path class="cls-3" d="M274.16,77.59c-1.5-6-20.86-9.81-15.38,11.63,4.13,16.12,25.88,28.87,25.88,28.87s15.24-11,12.75-37.12C295.91,65.22,274.91,72.72,274.16,77.59Z"/><path class="cls-2" d="M307.75,59.28c-3.61-.72-5.05-7.46,2.17-15.16s6.5,3.85,6.5,3.85,12.38-3.6,4.81,6.5c-5.77,7.7-13,1.68-13,1.68"/><path class="cls-2" d="M258.53,46.67s-5.12,4.14-11-3.41,3.9-6.58,3.9-6.58,3.18-9.95,6.34-4.39c4.14,7.31,0,11.7,0,11.7"/><path class="cls-4" d="M162.28,61.85a5.72,5.72,0,0,0,.85,6.4c1.92-3.14,5.35-5.91,9.84-8l-2,8.44a22.57,22.57,0,0,1,7.42-6.24l3.9,3.61a1,1,0,0,0,.41.24,1.39,1.39,0,0,0,.5,0c1.63-.36,2.46-1.82,4.22-1.51s1.33,1.41,2.3,2c1.56.93,2.41.88,4.64.92,5.08.09,9.38,2.41,13.29,4.45,3,1.57,7.42,3.71,11.63,3.61,1.85,0,7.06-2.68,8.46-2,1.15.59,1.4,2,2.87,1.89"/><path class="cls-4" d="M161,84c3.43-2.78,6.67-2.57,11.58-4.5.39,2.9.49,3.06-1.41,5.65-.8,1.1-1.77,2.43-.5,3.48a6.13,6.13,0,0,0,4.46.8,9.54,9.54,0,0,0,3.74-1.59,18,18,0,0,0,5.79-5.91l1.85,4.67a1.56,1.56,0,0,0,1,1,3.29,3.29,0,0,0,1.79-.1c2.8-.79,4.71-2.58,7.91-2.73,4-.19,7.4,2,11.18,2.61,4.73.72,9.61-.13,14,1.61a17.58,17.58,0,0,0,3.35,1.26c1.25.25,2.9,0,3-.77"/><path class="cls-1" d="M154.91,105.91c0,3.37,11,54,11,54l25.32,127.4"/><path class="cls-5" d="M57.41,34.09s43.5-15,91.87-2.62c0,0,2.63,40.5,13.13,77.62,0,0-33-2.25-87.38,12.38C75,121.47,60.78,75,57.41,34.09Z"/><path class="cls-1" d="M.5,264.58s34.57-11.92,73-2.09c0,0,2.08,32.19,10.43,61.69,0,0-26.23-1.79-69.43,9.83C14.51,334,3.18,297.06.5,264.58Z"/><path class="cls-4" d="M171.28,113.85a5.72,5.72,0,0,0,.85,6.4c1.92-3.14,5.35-5.91,9.84-8l-2,8.44a22.57,22.57,0,0,1,7.42-6.24l3.9,3.61a1,1,0,0,0,.41.24,1.39,1.39,0,0,0,.5,0c1.63-.36,2.46-1.82,4.22-1.51s1.33,1.41,2.3,2c1.56.93,2.41.88,4.64.92,5.08.09,9.38,2.41,13.29,4.45,3,1.57,7.42,3.71,11.63,3.61,1.85,0,7.06-2.68,8.46-2,1.15.59,1.4,2,2.87,1.89"/><path class="cls-4" d="M170,136c3.43-2.78,6.67-2.57,11.58-4.5.39,2.9.49,3.06-1.41,5.65-.8,1.1-1.77,2.43-.5,3.48a6.13,6.13,0,0,0,4.46.8,9.54,9.54,0,0,0,3.74-1.59,18,18,0,0,0,5.79-5.91l1.85,4.67a1.56,1.56,0,0,0,1,1,3.29,3.29,0,0,0,1.79-.1c2.8-.79,4.71-2.58,7.91-2.73,4-.19,7.4,2,11.18,2.61,4.73.72,9.61-.13,14,1.61a17.58,17.58,0,0,0,3.35,1.26c1.25.25,2.9,0,3-.77"/><path class="cls-4" d="M186.28,172.85a5.72,5.72,0,0,0,.85,6.4c1.92-3.14,5.35-5.91,9.84-7.95l-2,8.44a22.57,22.57,0,0,1,7.42-6.24l3.9,3.61a1,1,0,0,0,.41.24,1.39,1.39,0,0,0,.5,0c1.63-.36,2.46-1.82,4.22-1.51s1.33,1.41,2.3,2c1.56.93,2.41.88,4.64.92,5.08.09,9.38,2.41,13.29,4.45,3,1.57,7.42,3.71,11.63,3.61,1.85-.05,7.06-2.68,8.46-2,1.15.59,1.4,2,2.87,1.89"/><path class="cls-4" d="M185,195c3.43-2.78,6.67-2.57,11.58-4.5.39,2.9.49,3.06-1.41,5.65-.8,1.1-1.77,2.43-.5,3.48a6.13,6.13,0,0,0,4.46.8,9.54,9.54,0,0,0,3.74-1.59,18,18,0,0,0,5.79-5.91l1.85,4.67a1.56,1.56,0,0,0,1,1,3.29,3.29,0,0,0,1.79-.1c2.8-.79,4.71-2.58,7.91-2.73,4-.19,7.4,2,11.18,2.61,4.73.72,9.61-.13,14,1.61a17.58,17.58,0,0,0,3.35,1.26c1.25.25,2.9,0,3-.77"/><path class="cls-4" d="M196.28,229.85a5.72,5.72,0,0,0,.85,6.4c1.92-3.14,5.35-5.91,9.84-7.95l-2,8.44a22.57,22.57,0,0,1,7.42-6.24l3.9,3.61a1,1,0,0,0,.41.24,1.39,1.39,0,0,0,.5,0c1.63-.36,2.46-1.82,4.22-1.51s1.33,1.41,2.3,2c1.56.93,2.41.88,4.64.92,5.08.09,9.38,2.41,13.29,4.45,3,1.57,7.42,3.71,11.63,3.61,1.85-.05,7.06-2.68,8.46-2,1.15.59,1.4,2,2.87,1.89"/><path class="cls-4" d="M195,252c3.43-2.78,6.67-2.57,11.58-4.5.39,2.9.49,3.06-1.41,5.65-.8,1.1-1.77,2.43-.5,3.48a6.13,6.13,0,0,0,4.46.8,9.54,9.54,0,0,0,3.74-1.59,18,18,0,0,0,5.79-5.91l1.85,4.67a1.56,1.56,0,0,0,1,1,3.29,3.29,0,0,0,1.79-.1c2.8-.79,4.71-2.58,7.91-2.73,4-.19,7.4,2,11.18,2.61,4.73.72,9.61-.13,14,1.61a17.58,17.58,0,0,0,3.35,1.26c1.25.25,2.9,0,3-.77"/><path class="cls-1" d="M282.7,181s-13.1-1.25-12,15.91,17.93,16.06,19.49,14.34S300.51,203,296,191.13,282.7,181,282.7,181Z"/><path class="cls-2" d="M282.33,191.12c-.51-2.06-7.17-3.37-5.28,4,1.41,5.55,8.89,9.93,8.89,9.93s5.24-3.76,4.38-12.76C289.81,186.86,282.59,189.44,282.33,191.12Z"/><path class="cls-1" d="M284.38,238.46s-12.48-1.19-11.44,15.15,17.09,15.31,18.57,13.68,9.85-7.88,5.54-19.17S284.38,238.46,284.38,238.46Z"/><path class="cls-2" d="M284.08,248.32c-.47-1.89-6.58-3.09-4.85,3.66,1.3,5.09,8.16,9.11,8.16,9.11s4.8-3.46,4-11.71C290.93,244.42,284.31,246.78,284.08,248.32Z"/><path class="cls-2" d="M285.6,39.65s-6.54.75-7.42-8.77S285,27.43,285,27.43s8.23-5.54,7.91.85c-.43,8.39-6,9.19-6,9.19"/><path class="cls-4" d="M56.25,17.37s-15.19.85-16,21.1"/><path class="cls-4" d="M57.94.5S24.19,2.19,25,41"/><path class="cls-3" d="M93.9,262.84s16.22,12.88,19.66,24.4c0,0-9.34,6.78-14.74,16.95a91.1,91.1,0,0,1-4.92-38.64"/><path class="cls-1" d="M112.53,112.84s22.13-30,40.88-42.75"/><polyline class="cls-6" points="65.66 86.59 81.41 101.22 85.16 95.59 65.28 77.22"/><polyline class="cls-6" points="78.03 61.84 97.91 82.09 103.91 74.22 84.41 55.09"/><polyline class="cls-6" points="102.78 40.84 122.28 60.34 130.16 52.09 111.78 34.84"/><path class="cls-1" d="M92.28,47.59s21.38,17.44,42,37.88"/><path class="cls-1" d="M100.91,78.72S117.78,92.59,123,99"/><path class="cls-1" d="M70.91,71.22s29.62,24,43.5,39.75"/><path class="cls-1" d="M126,57.34s13.88,13.5,18.38,21"/><path class="cls-1" d="M121.16,31.09S147.41,52.47,153,66"/><path class="cls-1" d="M137.28,28.84s12,10.88,13.13,15.38"/><path class="cls-1" d="M83.28,99.72s10.88,7.87,15.75,16.5"/><line class="cls-5" x1="69.03" y1="102.72" x2="87.41" y2="118.84"/><path class="cls-6" d="M28.62,293.5s-13.5,2-10.68,11,16.59,15.18,19.12,9.28,5.63-11.81,8.44-12.66,10.12-7,4.5-7-13.22-.84-12.94-4.5-2.25-5.9-4.22-1.12S28.62,293.5,28.62,293.5Z"/><polyline class="cls-5" points="30.45 299.83 54.34 275.22 56.88 278.87 33.41 302.5"/><path class="cls-1" d="M54.34,275.22s6.07-8.44,9.16-6.47-1.84,9.28-6.63,10.12"/><line class="cls-7" x1="23.98" y1="302.64" x2="31.3" y2="309.25"/><line class="cls-7" x1="27.78" y1="301.94" x2="32.14" y2="305.87"/><path class="cls-8" d="M64.16,79.47s24.37-39,66.75-51.75"/></g></g></svg>
