<svg xmlns="http://www.w3.org/2000/svg" xmlns:xlink="http://www.w3.org/1999/xlink" viewBox="0 0 24 30" version="1.1" x="0px" y="0px"><title>icon-check-circle</title><desc>Created with love by @immaulana.</desc><g stroke="none" stroke-width="1" fill="none" fill-rule="evenodd"><path d="M22.5,12 C22.5,6.2009904 17.7984449,1.5 12,1.5 C6.19969686,1.5 1.5,6.19997917 1.5,12 C1.5,17.8000208 6.19969686,22.5 12,22.5 C17.7984449,22.5 22.5,17.7990096 22.5,12 Z M23.5,12 C23.5,18.3513212 18.3507027,23.5 12,23.5 C5.64739866,23.5 0.5,18.3522921 0.5,12 C0.5,5.64770787 5.64739866,0.5 12,0.5 C18.3507027,0.5 23.5,5.64867875 23.5,12 Z M11.0355339,14.6923882 L17.0459415,8.68198052 C17.2412037,8.48671837 17.5577862,8.48671837 17.7530483,8.68198052 C17.9483105,8.87724266 17.9483105,9.19382515 17.7530483,9.3890873 L11.3890873,15.7530483 C11.1938252,15.9483105 10.8772427,15.9483105 10.6819805,15.7530483 L7.14644661,12.2175144 C6.95118446,12.0222523 6.95118446,11.7056698 7.14644661,11.5104076 C7.34170876,11.3151455 7.65829124,11.3151455 7.85355339,11.5104076 L11.0355339,14.6923882 Z" fill="#fff" fill-rule="nonzero"/></g><text x="0" y="39" fill="#000000" font-size="5px" font-weight="bold" font-family="'Helvetica Neue', Helvetica, Arial-Unicode, Arial, Sans-serif">Created by Imam Maulana</text><text x="0" y="44" fill="#000000" font-size="5px" font-weight="bold" font-family="'Helvetica Neue', Helvetica, Arial-Unicode, Arial, Sans-serif">from the Noun Project</text></svg>
